<?xml version="1.0" encoding="UTF-8" standalone="no"?>
<!-- Created with Inkscape (http://www.inkscape.org/) -->

<svg
   xmlns:dc="http://purl.org/dc/elements/1.1/"
   xmlns:cc="http://creativecommons.org/ns#"
   xmlns:rdf="http://www.w3.org/1999/02/22-rdf-syntax-ns#"
   xmlns:svg="http://www.w3.org/2000/svg"
   xmlns="http://www.w3.org/2000/svg"
   version="1.1"
   width="27.5"
   height="27.5"
   id="svg2"
   xml:space="preserve"><metadata
     id="metadata8"><rdf:RDF><cc:Work
         rdf:about=""><dc:format>image/svg+xml</dc:format><dc:type
           rdf:resource="http://purl.org/dc/dcmitype/StillImage" /><dc:title></dc:title></cc:Work></rdf:RDF></metadata><defs
     id="defs6"><clipPath
       id="clipPath16"><path
         d="M 0,22 22,22 22,0 0,0 0,22 z"
         id="path18" /></clipPath></defs><g
     transform="matrix(1.25,0,0,-1.25,0,27.5)"
     id="g10"><g
       id="g12"><g
         clip-path="url(#clipPath16)"
         id="g14"><g
           transform="translate(0,18.6967)"
           id="g20"><path
             d="m 0,0 0,-15.392 c 0,-2.905 2.537,-3.256 3.15,-3.298 l 0,-0.007 0.133,0 15.432,0 0.135,0 0,0.007 c 0.613,0.042 3.15,0.393 3.15,3.298 L 22,0 c 0,2.904 -2.537,3.256 -3.15,3.298 l 0,0.005 -0.135,0 -15.432,0 -0.133,0 0,-0.005 C 2.537,3.256 0,2.904 0,0"
             id="path22"
             style="fill:#e5e5e5;fill-opacity:1;fill-rule:nonzero;stroke:none" /></g><g
           transform="translate(11,12.4413)"
           id="g24"><path
             d="m 0,0 c -0.789,0 -1.429,0.64 -1.429,1.429 0,0.788 0.64,1.428 1.429,1.428 0.789,0 1.429,-0.64 1.429,-1.428 C 1.429,0.64 0.789,0 0,0 m 0,3.571 c -1.183,0 -2.143,-0.959 -2.143,-2.142 0,-1.184 0.96,-2.143 2.143,-2.143 1.183,0 2.143,0.959 2.143,2.143 0,1.183 -0.96,2.142 -2.143,2.142 m 0,-10 c -1.972,0 -3.571,2.559 -3.571,5.715 C -3.571,2.442 -1.972,5 0,5 1.972,5 3.571,2.442 3.571,-0.714 3.571,-3.87 1.972,-6.429 0,-6.429 m 3.847,1.153 C 4.567,-4.038 5,-2.449 5,-0.714 5,3.231 2.761,6.429 0,6.429 c -2.761,0 -5,-3.198 -5,-7.143 0,-1.734 0.433,-3.324 1.153,-4.561 L -4.495,-5.919 C -4.774,-6.196 -5,-6.739 -5,-7.132 l 0,-1.421 c 0,-0.785 0.452,-0.971 1.01,-0.416 l 1.83,1.82 c 0.655,-0.449 1.385,-0.708 2.16,-0.708 0.772,0 1.5,0.257 2.153,0.704 L 3.99,-8.99 C 4.548,-9.548 5,-9.36 5,-8.571 l 0,1.428 c 0,0.395 -0.226,0.94 -0.505,1.219 l -0.648,0.648 z"
             id="path26"
             style="fill:#ffffff;fill-opacity:1;fill-rule:nonzero;stroke:none" /></g></g></g></g></svg>