<?xml version="1.0" encoding="UTF-8" standalone="no"?>
<!-- Created with Inkscape (http://www.inkscape.org/) -->

<svg
   xmlns:dc="http://purl.org/dc/elements/1.1/"
   xmlns:cc="http://creativecommons.org/ns#"
   xmlns:rdf="http://www.w3.org/1999/02/22-rdf-syntax-ns#"
   xmlns:svg="http://www.w3.org/2000/svg"
   xmlns="http://www.w3.org/2000/svg"
   xmlns:sodipodi="http://sodipodi.sourceforge.net/DTD/sodipodi-0.dtd"
   xmlns:inkscape="http://www.inkscape.org/namespaces/inkscape"
   id="svg3027"
   version="1.1"
   inkscape:version="0.48.2 r9819"
   width="37.5"
   height="37.5"
   xml:space="preserve"
   sodipodi:docname="search-icon.ai"><metadata
     id="metadata3033"><rdf:RDF><cc:Work
         rdf:about=""><dc:format>image/svg+xml</dc:format><dc:type
           rdf:resource="http://purl.org/dc/dcmitype/StillImage" /><dc:title></dc:title></cc:Work></rdf:RDF></metadata><defs
     id="defs3031"><clipPath
       clipPathUnits="userSpaceOnUse"
       id="clipPath3041"><path
         d="M 0,30 30,30 30,0 0,0 0,30 z"
         id="path3043" /></clipPath></defs><sodipodi:namedview
     pagecolor="#ffffff"
     bordercolor="#666666"
     borderopacity="1"
     objecttolerance="10"
     gridtolerance="10"
     guidetolerance="10"
     inkscape:pageopacity="0"
     inkscape:pageshadow="2"
     inkscape:window-width="640"
     inkscape:window-height="480"
     id="namedview3029"
     showgrid="false"
     inkscape:zoom="6.2933333"
     inkscape:cx="18.75"
     inkscape:cy="18.75"
     inkscape:window-x="0"
     inkscape:window-y="0"
     inkscape:window-maximized="0"
     inkscape:current-layer="g3035" /><g
     id="g3035"
     inkscape:groupmode="layer"
     inkscape:label="search-icon"
     transform="matrix(1.25,0,0,-1.25,0,37.5)"><g
       id="g3037"><g
         id="g3039"
         clip-path="url(#clipPath3041)"><g
           id="g3045"
           transform="translate(16.3128,11.9028)"><path
             d="M 0,0 C -2.331,-1.346 -5.313,-0.547 -6.659,1.784 -8.005,4.116 -7.206,7.097 -4.875,8.443 -2.543,9.789 0.438,8.99 1.784,6.659 3.13,4.327 2.331,1.346 0,0 M 5.748,-1.842 3.096,0.809 c -0.031,0.032 -0.063,0.06 -0.095,0.086 1.177,1.927 1.291,4.421 0.082,6.514 -1.76,3.049 -5.659,4.093 -8.708,2.333 -3.048,-1.76 -4.093,-5.659 -2.333,-8.708 1.76,-3.049 5.659,-4.093 8.708,-2.333 0.047,0.027 0.089,0.059 0.135,0.087 0.027,-0.033 0.057,-0.067 0.09,-0.1 l 2.652,-2.651 c 0.585,-0.586 1.535,-0.586 2.121,0 0.586,0.585 0.586,1.535 0,2.121"
             style="fill:#9c9ea1;fill-opacity:1;fill-rule:evenodd;stroke:none"
             id="path3047" /></g></g></g></g></svg>